<svg id="visual" viewBox="0 0 960 540" width="960" height="540" xmlns="http://www.w3.org/2000/svg" xmlns:xlink="http://www.w3.org/1999/xlink" version="1.1"><rect x="0" y="0" width="960" height="540" fill="#dfe6e9"></rect><path d="M501 0L506 15C511 30 521 60 546.5 90C572 120 613 150 549.2 180C485.3 210 316.7 240 302.7 270C288.7 300 429.3 330 471.8 360C514.3 390 458.7 420 487.8 450C517 480 631 510 688 525L745 540L0 540L0 525C0 510 0 480 0 450C0 420 0 390 0 360C0 330 0 300 0 270C0 240 0 210 0 180C0 150 0 120 0 90C0 60 0 30 0 15L0 0Z" fill="#1a1720" stroke-linecap="round" stroke-linejoin="miter"></path></svg>