<svg id="visual" viewBox="0 0 1920 600" width="1920" height="600" xmlns="http://www.w3.org/2000/svg" xmlns:xlink="http://www.w3.org/1999/xlink" version="1.1"><path d="M0 182L45.7 182C91.3 182 182.7 182 274.2 178.5C365.7 175 457.3 168 548.8 164C640.3 160 731.7 159 823 162.8C914.3 166.7 1005.7 175.3 1097 183.7C1188.3 192 1279.7 200 1371.2 197.7C1462.7 195.3 1554.3 182.7 1645.8 173.8C1737.3 165 1828.7 160 1874.3 157.5L1920 155L1920 0L1874.3 0C1828.7 0 1737.3 0 1645.8 0C1554.3 0 1462.7 0 1371.2 0C1279.7 0 1188.3 0 1097 0C1005.7 0 914.3 0 823 0C731.7 0 640.3 0 548.8 0C457.3 0 365.7 0 274.2 0C182.7 0 91.3 0 45.7 0L0 0Z" fill="#2d3436"></path><path d="M0 190L45.7 182.2C91.3 174.3 182.7 158.7 274.2 151.2C365.7 143.7 457.3 144.3 548.8 141.3C640.3 138.3 731.7 131.7 823 131.2C914.3 130.7 1005.7 136.3 1097 143.2C1188.3 150 1279.7 158 1371.2 159C1462.7 160 1554.3 154 1645.8 150.8C1737.3 147.7 1828.7 147.3 1874.3 147.2L1920 147L1920 0L1874.3 0C1828.7 0 1737.3 0 1645.8 0C1554.3 0 1462.7 0 1371.2 0C1279.7 0 1188.3 0 1097 0C1005.7 0 914.3 0 823 0C731.7 0 640.3 0 548.8 0C457.3 0 365.7 0 274.2 0C182.7 0 91.3 0 45.7 0L0 0Z" fill="#585f62"></path><path d="M0 115L45.7 120.8C91.3 126.7 182.7 138.3 274.2 144.7C365.7 151 457.3 152 548.8 145.8C640.3 139.7 731.7 126.3 823 122C914.3 117.7 1005.7 122.3 1097 118.2C1188.3 114 1279.7 101 1371.2 105.8C1462.7 110.7 1554.3 133.3 1645.8 145.5C1737.3 157.7 1828.7 159.3 1874.3 160.2L1920 161L1920 0L1874.3 0C1828.7 0 1737.3 0 1645.8 0C1554.3 0 1462.7 0 1371.2 0C1279.7 0 1188.3 0 1097 0C1005.7 0 914.3 0 823 0C731.7 0 640.3 0 548.8 0C457.3 0 365.7 0 274.2 0C182.7 0 91.3 0 45.7 0L0 0Z" fill="#888d91"></path><path d="M0 87L45.7 88.3C91.3 89.7 182.7 92.3 274.2 88C365.7 83.7 457.3 72.3 548.8 66.3C640.3 60.3 731.7 59.7 823 68C914.3 76.3 1005.7 93.7 1097 94.7C1188.3 95.7 1279.7 80.3 1371.2 72.3C1462.7 64.3 1554.3 63.7 1645.8 68.3C1737.3 73 1828.7 83 1874.3 88L1920 93L1920 0L1874.3 0C1828.7 0 1737.3 0 1645.8 0C1554.3 0 1462.7 0 1371.2 0C1279.7 0 1188.3 0 1097 0C1005.7 0 914.3 0 823 0C731.7 0 640.3 0 548.8 0C457.3 0 365.7 0 274.2 0C182.7 0 91.3 0 45.7 0L0 0Z" fill="#bbbec2"></path><path d="M0 62L45.7 60.5C91.3 59 182.7 56 274.2 54.5C365.7 53 457.3 53 548.8 51.3C640.3 49.7 731.7 46.3 823 41.8C914.3 37.3 1005.7 31.7 1097 35.2C1188.3 38.7 1279.7 51.3 1371.2 56.5C1462.7 61.7 1554.3 59.3 1645.8 56.2C1737.3 53 1828.7 49 1874.3 47L1920 45L1920 0L1874.3 0C1828.7 0 1737.3 0 1645.8 0C1554.3 0 1462.7 0 1371.2 0C1279.7 0 1188.3 0 1097 0C1005.7 0 914.3 0 823 0C731.7 0 640.3 0 548.8 0C457.3 0 365.7 0 274.2 0C182.7 0 91.3 0 45.7 0L0 0Z" fill="#f1f2f6"></path></svg>