<?xml version="1.0" encoding="UTF-8" standalone="no"?>
<svg xmlns="http://www.w3.org/2000/svg" xmlns:xlink="http://www.w3.org/1999/xlink" xmlns:serif="http://www.serif.com/" width="100%" height="100%" viewBox="0 0 1024 492" version="1.1" xml:space="preserve" style="fill-rule:evenodd;clip-rule:evenodd;stroke-linejoin:round;stroke-miterlimit:2;">
    <g transform="matrix(-1,0,0,1,1024,0)">
        <path d="M1024,465.135C975.179,479.472 931.13,490.038 904.06,491.302C839.176,494.332 780.465,415.991 732.425,399.033C638.593,365.912 507.223,419.385 423.421,388C341.432,357.294 300.186,242.639 229.616,210.726C159.743,179.128 0,196.52 0,196.52L0,0L632.398,0C632.398,0 659.302,76.321 689.397,100.223C720.372,124.823 784.996,119.32 818.245,147.602C851.495,175.883 854.602,246.77 888.895,269.913C923.187,293.057 1024,286.462 1024,286.462L1024,465.135Z"></path>
    </g>
</svg>
