<svg id="visual" viewBox="0 0 1920 1080" width="1920" height="1080" xmlns="http://www.w3.org/2000/svg" xmlns:xlink="http://www.w3.org/1999/xlink" version="1.1"><rect x="0" y="0" width="1920" height="1080" fill="#1a1720"></rect><defs><linearGradient id="grad1_0" x1="43.8%" y1="100%" x2="100%" y2="0%"><stop offset="14.444444444444446%" stop-color="#1a1720" stop-opacity="1"></stop><stop offset="85.55555555555554%" stop-color="#1a1720" stop-opacity="1"></stop></linearGradient></defs><defs><linearGradient id="grad2_0" x1="0%" y1="100%" x2="56.3%" y2="0%"><stop offset="14.444444444444446%" stop-color="#1a1720" stop-opacity="1"></stop><stop offset="85.55555555555554%" stop-color="#1a1720" stop-opacity="1"></stop></linearGradient></defs><g transform="translate(1920, 1080)"><path d="M-540 0C-551.9 -54.9 -563.8 -109.8 -521.6 -139.8C-479.4 -169.8 -383.1 -174.9 -336 -194C-288.9 -213.1 -290.9 -246.2 -282.8 -282.8C-274.8 -319.5 -256.5 -359.8 -232 -401.8C-207.5 -443.9 -176.6 -487.7 -136.9 -511C-97.2 -534.3 -48.6 -537.1 0 -540L0 0Z" fill="#f1f2f6"></path></g><g transform="translate(0, 0)"><path d="M540 0C515.3 48.3 490.6 96.7 444.3 119.1C398 141.4 330 137.9 330 190.5C329.9 243.1 397.7 352 381.8 381.8C366 411.7 266.6 362.7 214.5 371.5C162.4 380.4 157.8 447.2 129.9 484.9C102.1 522.6 51 531.3 0 540L0 0Z" fill="#f1f2f6"></path></g></svg>