<svg id="visual" viewBox="0 0 960 300" width="960" height="300" xmlns="http://www.w3.org/2000/svg" xmlns:xlink="http://www.w3.org/1999/xlink" version="1.1"><path d="M0 17L10.7 19C21.3 21 42.7 25 64 27.8C85.3 30.7 106.7 32.3 128 29.7C149.3 27 170.7 20 192 24.5C213.3 29 234.7 45 256 51C277.3 57 298.7 53 320 45.3C341.3 37.7 362.7 26.3 384 25.5C405.3 24.7 426.7 34.3 448 34.8C469.3 35.3 490.7 26.7 512 27C533.3 27.3 554.7 36.7 576 36.8C597.3 37 618.7 28 640 24.5C661.3 21 682.7 23 704 24.7C725.3 26.3 746.7 27.7 768 27.3C789.3 27 810.7 25 832 23.5C853.3 22 874.7 21 896 24.8C917.3 28.7 938.7 37.3 949.3 41.7L960 46L960 0L949.3 0C938.7 0 917.3 0 896 0C874.7 0 853.3 0 832 0C810.7 0 789.3 0 768 0C746.7 0 725.3 0 704 0C682.7 0 661.3 0 640 0C618.7 0 597.3 0 576 0C554.7 0 533.3 0 512 0C490.7 0 469.3 0 448 0C426.7 0 405.3 0 384 0C362.7 0 341.3 0 320 0C298.7 0 277.3 0 256 0C234.7 0 213.3 0 192 0C170.7 0 149.3 0 128 0C106.7 0 85.3 0 64 0C42.7 0 21.3 0 10.7 0L0 0Z" fill="#f1f2f6" stroke-linecap="round" stroke-linejoin="miter"></path></svg>