<svg id="visual" viewBox="0 0 1920 600" width="1920" height="600" xmlns="http://www.w3.org/2000/svg" xmlns:xlink="http://www.w3.org/1999/xlink" version="1.1"><rect x="0" y="0" width="1920" height="600" fill="#1a1720"></rect><defs><linearGradient id="grad1_0" x1="68.8%" y1="100%" x2="100%" y2="0%"><stop offset="-14.000000000000007%" stop-color="#1a1720" stop-opacity="1"></stop><stop offset="114.00000000000001%" stop-color="#1a1720" stop-opacity="1"></stop></linearGradient></defs><defs><linearGradient id="grad2_0" x1="0%" y1="100%" x2="31.3%" y2="0%"><stop offset="-14.000000000000007%" stop-color="#1a1720" stop-opacity="1"></stop><stop offset="114.00000000000001%" stop-color="#1a1720" stop-opacity="1"></stop></linearGradient></defs><g transform="translate(1920, 600)"><path d="M-390 0C-366.6 -20.3 -343.3 -40.6 -345.2 -68.7C-347.2 -96.8 -374.6 -132.7 -360.3 -149.2C-346.1 -165.8 -290.2 -163.1 -266.1 -177.8C-241.9 -192.5 -249.6 -224.6 -236.9 -236.9C-224.2 -249.1 -191.3 -241.5 -174.4 -261.1C-157.6 -280.7 -157 -327.5 -140.4 -339.1C-123.9 -350.6 -91.6 -326.9 -65.6 -329.5C-39.5 -332.2 -19.8 -361.1 0 -390L0 0Z" fill="#ffffff"></path></g><g transform="translate(0, 0)"><path d="M390 0C379.6 23.2 369.3 46.4 368.8 73.4C368.3 100.3 377.7 131 360.3 149.2C343 167.5 298.9 173.2 270.2 180.6C241.5 187.9 228.2 197 224.9 224.9C221.5 252.8 228.1 299.6 213.3 319.3C198.6 339 162.6 331.6 133.9 323.4C105.3 315.1 84.1 305.8 63 316.8C41.9 327.7 21 358.9 0 390L0 0Z" fill="#ffffff"></path></g></svg>