<svg id="visual" viewBox="0 0 1080 1080" width="1080" height="1080" xmlns="http://www.w3.org/2000/svg" xmlns:xlink="http://www.w3.org/1999/xlink" version="1.1"><path d="M1022 1080L1064 1003L983 926L928 849L1014 771L1060 694L944 617L1042 540L837 463L1049 386L909 309L870 231L937 154L878 77L898 0L1080 0L1080 77L1080 154L1080 231L1080 309L1080 386L1080 463L1080 540L1080 617L1080 694L1080 771L1080 849L1080 926L1080 1003L1080 1080Z" fill="#ffffff" stroke-linecap="square" stroke-linejoin="bevel"></path></svg>