<svg id="visual" viewBox="0 0 900 300" width="900" height="300" xmlns="http://www.w3.org/2000/svg" xmlns:xlink="http://www.w3.org/1999/xlink" version="1.1"><path d="M0 30L21.5 30.2C43 30.3 86 30.7 128.8 35.7C171.7 40.7 214.3 50.3 257.2 56.8C300 63.3 343 66.7 385.8 76.5C428.7 86.3 471.3 102.7 514.2 105.7C557 108.7 600 98.3 642.8 83.5C685.7 68.7 728.3 49.3 771.2 40.2C814 31 857 32 878.5 32.5L900 33L900 0L878.5 0C857 0 814 0 771.2 0C728.3 0 685.7 0 642.8 0C600 0 557 0 514.2 0C471.3 0 428.7 0 385.8 0C343 0 300 0 257.2 0C214.3 0 171.7 0 128.8 0C86 0 43 0 21.5 0L0 0Z" fill="#FFFFFF" stroke-linecap="round" stroke-linejoin="miter"></path></svg>